<svg xmlns="http://www.w3.org/2000/svg" viewBox="0 0 242.84 145.75"><defs><style>.cls-1{fill:#fff;}</style></defs><title>thelogo</title><g id="Layer_2" data-name="Layer 2"><g id="Layer_1-2" data-name="Layer 1"><path class="cls-1" d="M235.65,143.89a7.2,7.2,0,0,1-7.2-7.18c0-2.43-1-57.57-57.57-57.56-71.12,0-72-71.2-72-71.92a7.2,7.2,0,1,1,14.39,0c0,2.33.94,57.55,57.57,57.54,71.12,0,72,71.2,72,71.92A7.2,7.2,0,0,1,235.65,143.89Z"/><path class="cls-1" d="M106.15,143.92A7.19,7.19,0,0,1,99,136.73c0-.72.8-71.94,71.92-72,56.9,0,57.54-55.22,57.54-57.57a7.2,7.2,0,1,1,14.39,0c0,.72-.81,72-71.93,72-56.9,0-57.54,55.22-57.54,57.57A7.18,7.18,0,0,1,106.15,143.92Z"/><path class="cls-1" d="M7.23,145.75a7.2,7.2,0,1,1,0-14.39h0c2.94,0,72-.86,71.93-57.58,0-23.64-11.81-40.46-35.11-50A110,110,0,0,0,7.2,16.25a7.2,7.2,0,1,1,0-14.39,123.87,123.87,0,0,1,42.3,8.62C78.3,22.26,93.54,44.15,93.54,73.78s-15.21,51.53-44,63.33A124.09,124.09,0,0,1,7.23,145.75Z"/></g></g></svg>